<svg id="Layer_1" data-name="Layer 1" xmlns="http://www.w3.org/2000/svg" viewBox="0 0 4000 4000"><defs><style>.cls-1{fill:#e7c0ff;}.cls-2{fill:#f8f8f8;}.cls-3{fill:#371a45;}.cls-4{opacity:0.25;}.cls-5{fill:#bcc4cc;}.cls-6{opacity:0.61;}.cls-7{fill:#fff;}.cls-8{opacity:0.7;}.cls-9{fill:#111a28;}.cls-10{opacity:0.5;}.cls-11{opacity:0.41;}.cls-12{fill:#ffb200;}.cls-13{fill:#ff9100;}.cls-14{fill:#d66b09;}.cls-15{fill:#ffd766;}.cls-16{fill:#ffaa39;}.cls-17{fill:#ffcf6e;}.cls-18{fill:#ffec90;}.cls-19{opacity:0.2;}</style></defs><rect class="cls-1" width="4000" height="4000"/><path class="cls-2" d="M1994.38,2772.43c-9,.16-18.71.77-29,1.8-110.18,10.86-281.1,67.39-281.1,67.39l-194.39,282.64a42,42,0,0,1-49,15.53c-150.27-55.61-282.13-126.23-392.27-214.74a41.7,41.7,0,0,1-12.91-47.3c2.41-6.3,5.23-13.37,8.46-21,18.09-42,49.66-99.48,95.17-126.64,76.26-45.46,178.55,16,178.55,16s136.63-200.48,181.47-250.45S1695,2384.22,1695,2384.22l269.47,190.49S2100.31,2770.74,1994.38,2772.43Z"/><path class="cls-2" d="M2941.62,2507.78a148,148,0,0,1-32.8,91.48c-49.09,61-155.74,158.67-326.76,143.6-39.16-3.43-73.6-30.54-103.84-73.64-160.15-227.91-203.66-903.84-203.66-903.84l221.65-181.93s216.53,7.63,296,78.77c34.69,31.06,69.34,134.07,96.55,271.16,13.53,68.16,25.27,144.78,34.19,225.19,7.12,64,12.45,130.33,15.58,196.69C2941,2406.46,2942,2457.66,2941.62,2507.78Z"/><path class="cls-3" d="M2617.15,2762.9q-17.88,0-36.72-1.64c-111.25-9.8-199.57-182-262.52-511.8-45.81-240-61.64-480.49-61.79-482.89a18.48,18.48,0,1,1,36.88-2.37c.15,2.38,15.86,240.84,61.26,478.62,57.8,302.64,139.27,473.69,229.42,481.63,162.93,14.32,264.62-79.53,310.74-136.76a129.91,129.91,0,0,0,28.71-80.07c3.17-375.95-76.13-771.51-143.28-831.63-73.51-65.83-282.17-74-284.27-74.07a18.48,18.48,0,0,1,1.3-36.94c9.12.32,224.16,8.74,307.62,83.48,83.07,74.38,158.68,492.07,155.59,859.47a167.12,167.12,0,0,1-36.89,103C2876,2669.45,2775.79,2762.88,2617.15,2762.9Z"/><path class="cls-2" d="M2938.5,2355.26c-69.24,44.69-189.52,76.83-236,41.77l5.84-246.41,3-123.76s86.92-63.86,177.42-93.48c41.82-13.68,65.14,47.61,78.77,124,.16.92.31,1.95.52,3,15.37,88.36,18.09,195.57,21.47,230.32C2991.49,2311.29,2970.42,2334.61,2938.5,2355.26Z"/><path class="cls-3" d="M2760,2430.4c-27,0-51.15-5.4-68.67-18.62a18.48,18.48,0,0,1,22.26-29.5c31.8,24,125.25,8.28,200-33.64,41-23,58.55-45.22,57.48-56.15-.94-9.62-1.8-24-2.88-42.28-4.35-73.16-15.9-267.49-60.11-297.58-4.33-2.94-8.27-3.43-13.62-1.68-86.51,28.32-171.42,90.18-172.27,90.8a18.48,18.48,0,1,1-21.87-29.79c3.65-2.68,90.4-65.94,182.65-96.14,16.21-5.3,32.09-3.14,45.9,6.26,54.66,37.19,68,187.75,76.21,325.94,1.06,17.85,1.89,31.95,2.77,40.87,2.95,30.12-24.1,62.79-76.18,92C2886.24,2406.36,2816.92,2430.4,2760,2430.4Z"/><g class="cls-4"><path class="cls-3" d="M2938.5,2355.26c2.46,51.2,3.53,102.4,3.12,152.52a148,148,0,0,1-32.8,91.48c-49.09,61-155.74,158.67-326.76,143.6-39.16-3.43-73.6-30.54-103.84-73.64,2.82-99.84,16.76-107.16,27.83-204.18,11.94-105.16,32.44-173.48,46.13-188.85l156.15-125.57,7.49-6s5.53,58.53,85.79,55.76c41.2-1.44,87.69-16.4,121.31-41.82,31.87-24.14,52.12-57.71,45.1-98.2,15.37,88.36,18.09,195.57,21.47,230.32C2991.49,2311.29,2970.42,2334.61,2938.5,2355.26Z"/></g><path class="cls-3" d="M2947.66,2003.53c-28.52,8.72-57.38,18.6-85,29.89-18.94,8.33-40.88,16.62-55.37,30.45-.69.67-.87,1.15-1.4,1.73,0,.36-.26.24-.37.61a105.15,105.15,0,0,0-1.82,13.75c-1.69,29.71-.79,60.52,0,90.94q1.4,45.78,3.89,91.6-6.91-45.35-12.83-90.89c-3.75-30.47-7.68-60.64-9-92,0-5-.16-10.77.57-15.89.3-4.18,2.49-8.7,4.88-12,16.53-20.22,38.59-30.36,60-42.59,27.69-14.6,55.65-27.34,84.56-39.39,23.41-8.73,35.77,25.86,11.93,33.84Z"/><path class="cls-3" d="M1455.49,3160.86a60.22,60.22,0,0,1-20.94-3.76c-155.64-57.55-289.36-130.78-397.45-217.64a60.08,60.08,0,0,1-18.63-68.27c16.53-43.63,53-122,111.45-156.91,66.93-39.93,148.48-8.52,182.07,7.82,31.85-46.43,134.89-195.54,173.67-238.75,47.14-52.53,196.06-113.66,202.37-116.24a18.48,18.48,0,0,1,14,34.22c-40.84,16.67-154.39,68.34-188.82,106.7-43.52,48.49-178.62,246.53-180,248.52a18.47,18.47,0,0,1-24.78,5.43c-.91-.54-93.88-55.14-159.56-16-48.84,29.14-81,99.13-95.82,138.26a23.22,23.22,0,0,0,7.21,26.37c105,84.36,235.23,155.62,387.12,211.79a23.35,23.35,0,0,0,27.35-8.66l194.4-282.63a18.49,18.49,0,0,1,9.43-7.07c8.44-2.79,208.06-68.39,315.56-70.12,16-.26,19-5.94,19.92-7.81,13.57-26.4-30.59-111.64-64.71-160.93a18.48,18.48,0,1,1,30.38-21c16.24,23.44,95.8,143.18,67.2,198.85-6.38,12.44-20.62,27.37-52.2,27.88-92,1.48-264.73,55.46-298.68,66.36l-190.85,277.45A60.27,60.27,0,0,1,1455.49,3160.86Z"/><g class="cls-4"><path class="cls-3" d="M2001.66,2687.87c0,11.53-7.69,17.94-16.66,41-3.74,9.59-10.81,26.14-19.58,45.36-110.18,10.86-281.1,67.39-281.1,67.39l-194.39,282.64a42,42,0,0,1-49,15.53c-150.27-55.61-282.13-126.23-392.27-214.74a41.7,41.7,0,0,1-12.91-47.3c2.41-6.3,5.23-13.37,8.46-21l49.71,29.26c172.71,94,298.47,100.55,359.36-13.68,0,0,117.87-158.87,212-224.47s81.43-170.15,81.43-170.15l226.78,181.93C1981.16,2666.09,2001.66,2676.34,2001.66,2687.87Z"/></g><path class="cls-3" d="M1686.49,2851.87a15.81,15.81,0,0,1-3.65-.43c-187.64-45.61-301.16-192.44-305.9-198.67a15.37,15.37,0,1,1,24.46-18.63c1.24,1.61,112.06,144.48,288.7,187.42a15.37,15.37,0,0,1-3.61,30.31Z"/><path class="cls-2" d="M1313.08,2455.06s145.28-29.82,260.41-114.4l-282.94,21.55"/><g class="cls-4"><path class="cls-3" d="M1313.08,2455.06s145.28-29.82,260.41-114.4l-282.94,21.55"/></g><path class="cls-3" d="M1313.06,2473.54a18.48,18.48,0,0,1-3.7-36.58c1.41-.29,142.83-30.12,253.19-111.19a18.48,18.48,0,0,1,21.88,29.78c-117,86-261.54,116.36-267.64,117.61A18.31,18.31,0,0,1,1313.06,2473.54Z"/><path class="cls-2" d="M2507.74,2879.19,2307.1,3141.38c-50,65.34-141.86,82.71-211.4,38.74-61.7-39-113.83-111.82-145.91-188.6-24.08-57.45-36.9-117.15-34.23-166.71a95.61,95.61,0,0,1,17-48.79l20.61-30.08s-180.45-55-219.3-336.51v-73.49s-93.94-6.25-100.81-18.5-93.73-311.18-93.73-311.18,117.67-191.42,286.79-265.68c79.74-35,191.11-48.43,286.48-52.89,106.91-5,193.78,1.38,193.78,1.38l150.36-7.94s127.87,36.44,196.18,157.69,88.87,335.33,27.37,444.44C2760.2,2555.08,2725.91,2766.08,2507.74,2879.19Z"/><path class="cls-3" d="M2179.19,3222.57a174.08,174.08,0,0,1-93.36-26.85c-119-75.31-194.94-256.45-188.72-371.91a114.15,114.15,0,0,1,20.23-58.23l7.75-11.32c-52.12-25.34-177.37-109.49-209.51-342.32a17.69,17.69,0,0,1-.18-2.52v-56.31c-87.59-7.23-94.59-19.74-98.44-26.65-6.84-12.25-62.7-202.64-95.39-315a18.45,18.45,0,0,1,2-14.83c4.93-8,122.7-197.19,295.13-272.92,171.35-75.26,476.12-53.94,489-53a18.48,18.48,0,0,1-2.69,36.86c-3.07-.22-308.54-21.58-471.46,50-144.09,63.28-251.63,217.52-274.15,251.68,30.83,105.88,78.41,267,88.76,296.25,12.85,4.65,53.42,9.85,86.94,12.09a18.48,18.48,0,0,1,17.25,18.44v72.18c37.18,265.63,204.52,319.63,206.21,320.14a18.48,18.48,0,0,1,9.86,28.12l-20.6,30.06A77.22,77.22,0,0,0,1934,2825.8c-5.67,105,66.51,272.19,171.57,338.69,60.64,38.39,142.7,23.3,186.82-34.34L2493.07,2868a18.56,18.56,0,0,1,6.17-5.17c194-100.55,247.38-288.42,163.32-574.34a18.48,18.48,0,0,1,1.63-14.29c54.71-97.05,41.43-304.2-27.34-426.26-63.58-112.86-184-148.68-185.18-149a18.48,18.48,0,0,1,10.15-35.54c5.52,1.57,136,40,207.23,166.42,66.67,118.33,93.08,335.53,31.09,455.58,41.22,143.21,48.92,261,23.56,360-27.68,108-96.22,191.52-203.77,248.34l-198.17,258.93C2286.92,3198.12,2233.26,3222.57,2179.19,3222.57Z"/><path class="cls-2" d="M1870.61,2060.36H2260.4a63.27,63.27,0,0,1,63.27,63.27v236a63.28,63.28,0,0,1-61.7,63.26l-389.79,9.67a63.28,63.28,0,0,1-64.84-63.26V2123.63A63.27,63.27,0,0,1,1870.61,2060.36Z"/><path class="cls-3" d="M1870.54,2451.08a81.76,81.76,0,0,1-81.68-81.76V2123.63a81.85,81.85,0,0,1,81.75-81.75H2260.4a81.85,81.85,0,0,1,81.75,81.75v236a81.29,81.29,0,0,1-79.72,81.73l-389.79,9.67Q1871.59,2451.08,1870.54,2451.08Zm.07-372.24a44.84,44.84,0,0,0-44.79,44.79v245.69a44.79,44.79,0,0,0,45.9,44.79l389.79-9.67a44.55,44.55,0,0,0,43.69-44.79v-236a44.85,44.85,0,0,0-44.8-44.79Z"/><path class="cls-2" d="M1758.29,2064.63h389.79a63.28,63.28,0,0,1,63.27,63.28v236a63.27,63.27,0,0,1-61.7,63.26l-389.79,9.67a63.28,63.28,0,0,1-64.84-63.26V2127.91A63.27,63.27,0,0,1,1758.29,2064.63Z"/><path class="cls-3" d="M2026.87,2448.16a17.93,17.93,0,0,1-17.92-17.5c-.78-31.69-1.72-81.35-.81-106.94-28.1-7-112.39-18.15-188.13-26a17.93,17.93,0,0,1-16.07-17l-10.25-215.25a17.94,17.94,0,1,1,35.83-1.71l9.52,199.88c189.39,20.11,197.31,31.12,202.11,37.78a19.15,19.15,0,0,1,3.21,15.35c-1.23,7.83-.76,63.7.45,113a17.94,17.94,0,0,1-17.49,18.37Zm-10.61-121.86h0Zm-6.92-17.26c-.09.39-.16.78-.22,1.17C2009.19,2309.77,2009.26,2309.38,2009.34,2309Zm0,0h0Z"/><path class="cls-3" d="M1758.23,2455.35a81.76,81.76,0,0,1-81.69-81.76V2127.9a81.85,81.85,0,0,1,81.75-81.75h389.79a81.85,81.85,0,0,1,81.75,81.75v236a81.29,81.29,0,0,1-79.72,81.73l-389.79,9.67Zm.06-372.24a44.85,44.85,0,0,0-44.8,44.79v245.69a44.81,44.81,0,0,0,45.91,44.79l389.79-9.67a44.54,44.54,0,0,0,43.68-44.79v-236a44.84,44.84,0,0,0-44.79-44.79Z"/><path class="cls-5" d="M2199.12,2291.66l-1.43,27.06a33.85,33.85,0,0,1-32.55,32l-495.94,17.68-685.51,24.5a33.82,33.82,0,0,1-35-32.75l-.87-28.13a33.63,33.63,0,0,1,12.65-27.37h.06a33.15,33.15,0,0,1,19.93-7.48l683.67-23.73,1.38,0,498.66-17.32A33.82,33.82,0,0,1,2199.12,2291.66Z"/><g class="cls-6"><path class="cls-7" d="M2199.12,2291.66l-1,18.76a33.9,33.9,0,0,0-34-25.52L1666,2302.22l-.71-28.8,498.91-17.32A33.82,33.82,0,0,1,2199.12,2291.66Z"/></g><path class="cls-5" d="M1670.23,2365.87l-1.13-.1-708.57-61.09h-.06l-26.9-58.88L729,1798.29a35.08,35.08,0,0,1,3.64-35.47l15.89-21.63A35.17,35.17,0,0,1,775.05,1727l593.88-31.42a93.82,93.82,0,0,1,92.4,59.55l1.23,3.08,201.57,515.31,3.48,52.94Z"/><g class="cls-6"><path class="cls-7" d="M1664.69,2282l-193.11-493.64a93.83,93.83,0,0,0-92.4-59.55L785.3,1760.26a35.15,35.15,0,0,0-26.49,14.25l-15.89,21.62a35,35,0,0,0-6.71,17.79L729,1798.29a35.08,35.08,0,0,1,3.64-35.47l15.89-21.63A35.17,35.17,0,0,1,775.05,1727l593.88-31.42a93.82,93.82,0,0,1,92.4,59.55l202.8,518.39Z"/></g><path class="cls-3" d="M982.45,2408.6a49.46,49.46,0,0,1-49.37-47.91l-.88-28.16a49.54,49.54,0,0,1,47.71-51h0l1183.72-41.11a49.45,49.45,0,0,1,51.09,52l-1.41,27.06a49.19,49.19,0,0,1-47.61,46.83l-1181.44,42.2C983.66,2408.59,983.05,2408.6,982.45,2408.6ZM981,2312.83h0a18.21,18.21,0,0,0-17.53,18.73l.87,28.16a18.17,18.17,0,0,0,18.82,17.59l1181.43-42.2a18.08,18.08,0,0,0,17.5-17.22l1.42-27.06a18,18,0,0,0-5.19-13.68,17.81,17.81,0,0,0-13.59-5.43Z"/><path class="cls-3" d="M1670.23,2381.49a15.64,15.64,0,0,1-15.59-14.61l-5.94-90-201.92-516.14a78.23,78.23,0,0,0-77-49.65l-593.87,31.41a19.45,19.45,0,0,0-14.7,7.94l-15.9,21.61a19.56,19.56,0,0,0-2,19.7l231.44,506.41a15.63,15.63,0,0,1-28.44,13L714.8,1804.78a50.82,50.82,0,0,1,5.28-51.22l15.9-21.62a50.65,50.65,0,0,1,38.24-20.63l593.87-31.42a109.45,109.45,0,0,1,107.81,69.49l202.8,518.39a15.83,15.83,0,0,1,1,4.66l6.1,92.39a15.62,15.62,0,0,1-14.57,16.63C1670.93,2381.48,1670.58,2381.49,1670.23,2381.49Z"/><g class="cls-4"><path class="cls-3" d="M1669.2,2368.43l-685.51,24.5a33.82,33.82,0,0,1-35-32.75l-.87-28.13a33.63,33.63,0,0,1,12.65-27.37l-26.9-58.88c318-8,518-123.52,496.3-418.1v-87.12l32.69,17.58,201.57,515.31,1.38,0c.77,18.86,1.49,36.74,2.1,53,.57,14.66,1.08,27.93,1.49,39.36C1669.15,2366.69,1669.15,2367.56,1669.2,2368.43Z"/></g><path class="cls-2" d="M1054.82,2413.69s29.9-113.6,150.34-94,148.62,139.23,64.06,182.79-353.62,36.73-319.46-176.81C949.76,2325.71,960,2388.06,1054.82,2413.69Z"/><g class="cls-4"><path class="cls-3" d="M1269.2,2502.5c-58.42,30.09-204.89,36.13-278.59-33.41,71.39,19.11,153.7,9.79,194-11,57-29.36,62.78-93.27,23.57-137.81C1326,2341.43,1353.05,2459.3,1269.2,2502.5Z"/></g><path class="cls-3" d="M1158.5,2542.16c-56.69,0-118.44-12.84-163.29-45.33-37.42-27.11-78.85-79.31-63.69-174a18.47,18.47,0,0,1,18.2-15.56h0A18.48,18.48,0,0,1,968,2322.71c.33,1.73,9.3,44.41,75.26,68,19.16-45.2,70-104.71,164.87-89.24,68.34,11.15,118.19,54.3,127,109.93,7,44.45-15,85.65-57.44,107.52C1250.26,2533.07,1206.17,2542.16,1158.5,2542.16Zm-191-153.87c5.69,32.59,22.19,58.91,49.39,78.61,70.24,50.88,193.3,45.25,243.87,19.19,28.23-14.54,42.39-40.3,37.86-68.9-4.76-30.06-32.87-68.85-96.44-79.22-102.68-16.77-128.44,76.45-129.49,80.42a18.48,18.48,0,0,1-22.69,13.14C1011.36,2421.08,985.18,2404.82,967.5,2388.29Z"/><path class="cls-2" d="M2435.28,2143c-6.77,57.3-31.57,112.9-67.19,140.22l-168.92-56.63s-39.92,46.12-140.47,35.87S1912,2150.37,1912,2150.37s-42.9,89.07-94.81,53.2c-14.15-9.79-21-21.84-23.22-34.44-2.92-16.4,1.85-33.78,8.36-48.38a151.43,151.43,0,0,1,32.64-46.23l96.25-94.76c81.13-106.75,194.75-29.88,273.31,15.37h192.19C2431.33,2029.42,2441.94,2087,2435.28,2143Z"/><path class="cls-3" d="M2368.09,2301.73a18.55,18.55,0,0,1-5.87-1l-158.72-53.2c-18.53,14.72-64.63,41.68-146.7,33.32-75.44-7.69-122.51-60.58-145.28-94.46-12.38,16.84-30.9,36-54,42.13-17.35,4.6-34.92,1.2-50.83-9.79-33.67-23.28-41.2-60.77-21.22-105.56a170.2,170.2,0,0,1,36.54-51.87l95.33-93.82c85.85-111.55,203.38-42.78,281.24,2.77l10.94,6.38H2396.7a18.46,18.46,0,0,1,13,5.35c32.72,32.38,49.27,86.07,45.42,147.3-4.44,70.5-34.19,136.68-75.78,168.59A18.48,18.48,0,0,1,2368.09,2301.73Zm-168.92-93.58a18.37,18.37,0,0,1,5.87,1l159,53.3c29.32-27.62,50.71-80.45,54.17-135.41,3-47.12-7.76-87.91-29.57-113.37H2204.52a18.41,18.41,0,0,1-9.22-2.47c-5-2.88-10.15-5.89-15.42-9-95.11-55.65-172.74-91.81-234-11.23a18.32,18.32,0,0,1-1.75,2l-96.26,94.73a133.5,133.5,0,0,0-28.71,40.59c-18.49,41.44,1.11,55,8.49,60.1,9.22,6.38,16,5.6,20.33,4.48,21.33-5.6,41.84-39.18,47.34-50.5a18.48,18.48,0,0,1,33.46.42c.41.89,43.27,92.33,131.74,101.35s124.32-29.2,124.66-29.58A18.46,18.46,0,0,1,2199.17,2208.15Z"/><path class="cls-3" d="M1895.78,2141.49l68.72-86.55-36.34,104.36a18.74,18.74,0,0,1-23.86,11.54c-12.06-3.94-16.52-19.61-8.52-29.35Z"/><polygon class="cls-3" points="2182.3 2219.07 2225.87 2174.1 2216.03 2234.18 2182.3 2219.07 2182.3 2219.07"/><g class="cls-4"><path class="cls-3" d="M2435.28,2143c-6.77,57.3-31.57,112.9-67.19,140.22l-168.92-56.63s-39.92,46.12-140.47,35.87S1912,2150.37,1912,2150.37s-42.9,89.07-94.81,53.2c-14.15-9.79-21-21.84-23.22-34.44l5.69-5.69s38.44,25.62,80.31-31.62c41-56.07,94.3-103.12,96.45-105-1.33,3.28-43,107.42,41,156.21,85.43,49.55,188.8-86.26,188.8-86.26s61.5,53.81,210.13,46.13A153.78,153.78,0,0,1,2435.28,2143Z"/></g><path class="cls-3" d="M1941.94,2731.29c52.79-38,137-76.21,200.4-43.32,29.27,17.6,54.57,41.5,76.64,67.14a440.34,440.34,0,0,1,55.58,81.38c-38.46-40.89-80-78.13-128.79-105.26-18.34-10-37.52-17.75-58.68-18.15-43.88.21-87.25,22.65-122.67,47.54-19.85,14.65-41.88-13.85-22.48-29.33Z"/><path class="cls-3" d="M2214.16,3218.57a17.94,17.94,0,0,1-6.48-34.67c4.71-1.83,11.4-5.76,15-18.75,18.38-66.51-66-242.68-129.69-324.47-66.16-84.95-119.4-76.66-121.63-76.27a17.81,17.81,0,0,1-21.14-13.83,18.07,18.07,0,0,1,14-21.31c3.08-.66,76-14.81,157.13,89.37,60.37,77.52,160.27,268.13,135.95,356.07-5.76,20.85-18.42,35.59-36.62,42.64A17.75,17.75,0,0,1,2214.16,3218.57Z"/><path class="cls-3" d="M2100,2682.17a8.27,8.27,0,0,0-1,1.15c-.09.12-.38.6-.29.44.61-1,2.09-3.55,2.71-4.57,26.81-45.38,58.88-87.41,94.76-126,49.5-54.29,119.63-93.31,193.23-100.48a230.84,230.84,0,0,1,54.28,2.86c-17.94,1.38-35.42,4-52.23,8.77-50,14.38-93.62,44-130.74,79.68-12.37,11.81-25.06,23.27-37.37,35.34-30.52,30.62-56.64,65.67-80,102.06-2.1,3.39-8.22,13.23-10.19,16.64l-1.69,2.86-.9,1.53c-13.63,24.16-47.76,1.64-30.64-20.25Z"/><path class="cls-3" d="M2424.62,3003.17a15.38,15.38,0,0,1-15.15-12.86c-30.34-182.78-144.55-331.48-254.61-331.48a15.38,15.38,0,0,1,0-30.75c126.54,0,251.7,156.9,284.94,357.19a15.38,15.38,0,0,1-12.65,17.69A15.61,15.61,0,0,1,2424.62,3003.17Z"/><path class="cls-3" d="M2393.58,1976.94l102.65,1.13-96.4,35.29c-28.33,8.31-35.74-34.8-6.25-36.42Z"/><path class="cls-3" d="M2563.15,2344.74c-94.43,0-195.72-41.73-202.2-44.44a18.48,18.48,0,0,1,14.27-34.09c61,25.51,232.21,76.16,290.82,5.27a18.48,18.48,0,0,1,28.49,23.54C2663.58,2332.46,2614.36,2344.74,2563.15,2344.74Z"/><path class="cls-3" d="M2339.64,1993.77l-4.43-83.18,40,73.07a19,19,0,0,1-7.53,25.72c-11.84,6.86-27.59-2.06-28-15.61Z"/><path class="cls-3" d="M1705.15,2067a645.88,645.88,0,0,1,14.22-80.38c6.39-26.05,14.53-51.92,26-76.06-8.3,38.9-8.72,78.19-6.7,117.48.75,12.92,1.81,26.21,3.4,38.51,2.15,27.41-38.42,28-37,.45Z"/><g class="cls-4"><path class="cls-3" d="M2680.3,2283.26c79.9,271.82,45.61,482.82-172.56,595.93L2307.1,3141.38c-50,65.34-141.86,82.71-211.4,38.74-61.7-39-113.83-111.82-145.91-188.6q9,7.23,18.14,15.79c208.39,194.75,186.91-87.12,186.91-87.12,200.08,172.86,96.4-111.57,94.76-116.19l74.06,58.12s17.52-46.12,172.55-181.94,64.07-297.24,64.07-297.24c-110.19,21.78-236.62-58.94-236.62-56.53s-100.35-12.66-104.19-10.1-.87-83.17-.87-83.17l158.61,53.71L2435.28,2143c41.92-.61,134.27-1,134.27-1,105.32-220.38-89.94-341.07-89.94-341.07-238.21,104.81-530.48,28.45-541.35,25.37l174.35-138.68c106.91-5,193.78,1.38,193.78,1.38l150.36-7.94s127.87,36.44,196.18,157.69S2741.8,2174.15,2680.3,2283.26Z"/></g><g class="cls-4"><path class="cls-3" d="M2859.67,1662.88l-1.53-.61C2858.65,1662,2859.67,1662.88,2859.67,1662.88Z"/></g><circle class="cls-2" cx="2058.9" cy="1139.77" r="685.58"/><g class="cls-4"><path class="cls-3" d="M2699.8,1383.21c-134.48,354-530.41,531.94-884.36,397.47a682.11,682.11,0,0,1-280.62-198.78,685.78,685.78,0,0,0,155.48,83.18c354,134.46,749.88-43.47,884.35-397.42,91.56-241.05,38.24-501.56-116.87-685.71C2705.15,758.58,2812.81,1085.74,2699.8,1383.21Z"/></g><path class="cls-3" d="M1422.36,1402.59c38.36,88.29,102.65,183.16,208.56,273,303.4,202.09,712.08,124,884.91-296.12l-27.3-348.16c-14.54-53.67-44.26-104.57-85-150.69C2153.54,598,1489.12,495,1380.2,1042.37,1380.2,1042.37,1336.92,1206,1422.36,1402.59Z"/><g class="cls-8"><path class="cls-9" d="M1422.36,1402.59c38.36,88.29,102.65,183.16,208.56,273,303.4,202.09,712.08,124,884.91-296.12l-27.3-348.16c-14.54-53.67-44.26-104.57-85-150.69,91.67,475.86-492.81,959.81-976.91,524.08Z"/></g><path class="cls-3" d="M2030.78,1840.74q-19.85,0-40.49-1.34a17.3,17.3,0,1,1,2.25-34.52c173.6,11.35,322.29-51.76,442-187.54,81.84-92.79,121.55-189.79,128.5-207.78l-14.58-429.2C2481.29,828,2345.35,705.44,2165.35,635c-184.27-72.14-384.08-75.65-534.49-9.41a17.3,17.3,0,0,1-13.94-31.66c158.65-69.88,368.39-66.57,561,8.85,189.82,74.31,333.14,204.59,403.58,366.82a17.11,17.11,0,0,1,1.42,6.3l14.81,436a17.11,17.11,0,0,1-1,6.39c-1.64,4.6-41.2,113.87-135.44,221.09C2379,1733,2239,1840.72,2030.78,1840.74Z"/><path class="cls-3" d="M1971.15,1798.93c-119.82,0-241.46-37.28-349.62-109.33a16.91,16.91,0,0,1,18.75-28.14c149.76,99.76,326.44,129.24,484.74,80.9,163.54-50,296.11-179.73,373.64-365.65l-26.88-342.5c-27-97.8-112-194-233.35-264-121.14-69.94-266.28-107.48-398.18-103.06-138.42,4.67-380.1,60-443.5,378.55a16.91,16.91,0,0,1-33.17-6.6c49.64-249.34,223-397.23,475.53-405.75,295.41-9.91,606.39,174,665.72,393.56a16.92,16.92,0,0,1,.53,3.09l27.33,348.12a17,17,0,0,1-1.22,7.76c-81.24,197.45-222.08,335.54-396.58,388.84A559.83,559.83,0,0,1,1971.15,1798.93Z"/><path class="cls-3" d="M2059.19,1846.49a706.3,706.3,0,0,1-251.13-46.42C1444,1661.75,1260.29,1253,1398.6,888.94c67-176.38,198.68-316.1,370.77-393.44s364-83,540.37-16c364.09,138.32,547.77,547.05,409.46,911.14-67,176.37-198.68,316.09-370.77,393.43A704.34,704.34,0,0,1,2059.19,1846.49Zm-.56-1371.9a663,663,0,0,0-272.25,58.78c-162,72.79-285.91,204.3-349,370.31-130.18,342.69,42.71,727.4,385.4,857.58,166,63.06,346.63,57.7,508.6-15.09s285.91-204.3,349-370.3l19.4,7.37-19.4-7.37c130.18-342.69-42.71-727.41-385.4-857.59A664.91,664.91,0,0,0,2058.63,474.59Z"/><path class="cls-2" d="M2766.79,1191.79c1.62,122.94-59.44,222-155.08,223.24s-174.46-97.39-176.08-220.33,74.6-223.63,170.23-224.88S2765.18,1068.85,2766.79,1191.79Z"/><g class="cls-4"><path class="cls-3" d="M2611.69,1415c-95.61,1.24-174.45-97.38-176-220.31-.51-39,6.77-75.75,20.08-107.77,15.85,103.81,87.69,181.81,172.75,180.72,63.27-.86,111.41-44.43,136.29-109.44,1.21,11,1.89,22.18,2,33.56C2768.38,1314.73,2707.37,1413.76,2611.69,1415Z"/></g><path class="cls-3" d="M2609.88,1435.8c-52,0-100.83-25.3-137.68-71.4-36.13-45.21-56.48-105.38-57.33-169.43-1.76-134.19,83.79-244.5,190.72-245.91,52.15-.54,99.6,25.34,133,73.3,30.7,44.05,48.08,104.13,48.94,169.16,1.84,140.17-72,242.9-175.56,244.26Zm-2.23-445.24h-1.51c-84,1.11-151.22,92.55-149.75,203.85.72,54.87,17.85,106,48.24,144.06,29.17,36.5,67.1,56.32,106.81,55.79,79.52-1,136.12-86.08,134.59-202.2-.74-56.82-15.47-108.66-41.48-146C2686.84,1020.68,2655.7,990.56,2607.65,990.56Z"/><path class="cls-3" d="M2669.53,1400.53c-83.69,0-152.77-93.46-154.32-209.3-.71-55.36,13.84-107.81,41-147.7,28.42-41.8,67.23-65.11,109.29-65.65a110.89,110.89,0,0,1,25.43,2.66,17.62,17.62,0,0,1,2.15.62,17.3,17.3,0,0,1-10.1,33.05,77.14,77.14,0,0,0-17.06-1.73c-30.41.38-59.22,18.32-81.1,50.5-23.17,34.08-35.6,79.47-35,127.79,1.3,96.92,54.89,175.16,119.68,175.16h1.09a75,75,0,0,0,25.36-4.67,17.3,17.3,0,1,1,12.1,32.41,109.82,109.82,0,0,1-37,6.85Z"/><g class="cls-10"><path class="cls-7" d="M1885.28,774.29C1682,901,1563.86,1076.61,1542.88,1308c-1.68,18.55-27.94,21.09-33.1,3.2C1425.1,1017.71,1466.71,764,1875.39,743,1892.91,742.07,1900.16,765,1885.28,774.29Z"/></g><g class="cls-10"><path class="cls-7" d="M2280.78,1203l-3.63.3a64.7,64.7,0,0,1-68.92-53q-1-5.62-2.1-10.89c-7.12-34.89,15-69,49.91-76.18l2.74-.56a64.72,64.72,0,0,1,74.84,44.38q2.18,7,4.11,14A64.7,64.7,0,0,1,2280.78,1203Z"/></g><g class="cls-10"><path class="cls-7" d="M2148.32,1595.45h0A64.56,64.56,0,0,1,2127.2,1505a462.85,462.85,0,0,0,64.62-155.87c7.52-35.23,41.71-58,76.93-50.44l9.07,1.94c35.54,7.62,58.07,43.11,49.31,78.39-21.83,87.85-62.85,156.72-93.18,198.8A64.62,64.62,0,0,1,2148.32,1595.45Z"/></g><g class="cls-4"><path class="cls-3" d="M1807.34,2620.73s227.2,63.73,404-67.81l-81.87,122.14-29.17,19.28c-61.62,3.44-111.61,17.45-142.86,48.51C1894.88,2719.93,1843.12,2681.67,1807.34,2620.73Z"/></g><g class="cls-4"><path class="cls-3" d="M1734.79,1949.65s-76.73,68.5-117,205.41l52.42,113.42,18.37-12.41s8.54-141.55,6.41-144.11,22.82-28.83,28.6-66.63,5.36-61.08,5.36-61.08"/></g><path class="cls-3" d="M1332.59,2734.9l31,70.85-60.34-48.37a19,19,0,0,1-3-26.75c8.48-11.15,27-8.56,32.28,4.27Z"/><path class="cls-3" d="M2581.19,1765.07a18.48,18.48,0,0,1-14.51-29.9c87.66-111.4,222.6-92.08,228.31-91.21a18.48,18.48,0,0,1-5.58,36.53c-4.91-.73-119.63-16.58-193.69,77.53A18.44,18.44,0,0,1,2581.19,1765.07Z"/><g class="cls-4"><path class="cls-3" d="M2588.5,1592.17s-105.1,48.39,42.24,208.82c-52.94-54.2-107.87-96.41-166.34-117.36l81.36-96.55"/></g><path class="cls-7" d="M1265.87,1914.87a130.59,130.59,0,0,1,5.94,15.45c-21.5,17.54-64,42.16-114.87,65.42s-97.26,39.33-124.6,44.13a131.13,131.13,0,0,1-7.8-14.6l-.33-.71q-1.51-3.37-2.83-6.78a131.49,131.49,0,0,1-5.08-16.1c0-.22-.11-.44-.16-.66a132.72,132.72,0,0,1,236.09-109.44c.4.54.79,1.08,1.17,1.63a132.06,132.06,0,0,1,8.86,14.37c1,1.87,2,3.77,2.87,5.7C1265.38,1913.81,1265.63,1914.33,1265.87,1914.87Z"/><path class="cls-7" d="M1277.42,1981.53a132.73,132.73,0,0,1-175.69,113.91,133.27,133.27,0,0,1-34.31-17.84c32.51-8.32,70.07-21.69,108.92-39.46S1249.86,2000.69,1277.42,1981.53Z"/><path class="cls-7" d="M1271.81,1930.31c-21.5,17.55-64,42.18-114.86,65.43s-97.28,39.33-124.62,44.13a134.53,134.53,0,0,1-7.8-14.6l-.32-.71c-1-2.25-2-4.51-2.83-6.78a132.69,132.69,0,0,1-5.08-16.1c-.06-.22-.11-.44-.16-.66a132.8,132.8,0,0,1,54.4-140.67,133.31,133.31,0,0,0-21,78.56,131.72,131.72,0,0,0,3.5,24.23c0,.22.11.44.16.66s.17.65.3,1.07c6.76,22.8,31.31,32.34,55,30.19,45.14-4.09,142.9-56.93,163.7-69.13C1273.66,1929.44,1270.69,1926.76,1271.81,1930.31Z"/><path class="cls-7" d="M1176.34,2038.14c38.85-17.77,73.52-37.45,101.08-56.61a131.11,131.11,0,0,1-2.41,16.07c-21.2,15.54-55.1,34.77-94.6,52.84-37.83,17.31-73.11,30-98.54,36.24a131.55,131.55,0,0,1-14.45-9.08C1099.93,2069.28,1137.49,2055.91,1176.34,2038.14Z"/><path class="cls-7" d="M1265.13,1913.28c.25.53.5,1,.74,1.59a130.59,130.59,0,0,1,5.94,15.45c-21.5,17.54-64,42.16-114.87,65.42s-97.26,39.33-124.6,44.13a131.13,131.13,0,0,1-7.8-14.6l-.33-.71c25.94-3,73.21-18.55,125-42.25C1203.1,1957.67,1247.11,1931,1265.13,1913.28Z"/><path class="cls-7" d="M1012.43,1981.26l.42-8.94c18.09.86,65.33-14.37,114.88-37,59.11-27,97.25-52.89,104.38-64.45l7.61,4.7c-9.43,15.29-52.94,42.57-108.27,67.89C1079.93,1967,1032.1,1982.19,1012.43,1981.26Z"/><path class="cls-7" d="M1018.86,1936.09l-1.35-8.84c20.32-3.11,55.54-15.37,91.9-32,38.1-17.43,71-36.61,86-50.06l6,6.64c-15.56,14-49.38,33.78-88.25,51.56C1076.07,1920.33,1040,1932.87,1018.86,1936.09Z"/><path class="cls-7" d="M1016.14,2005.49v-8.94c20.76,0,69.57-15.94,121.46-39.68,54.44-24.9,100.08-52.83,111-67.91l7.25,5.24c-11.92,16.47-57.94,44.92-114.52,70.81C1087.54,1989.61,1038.4,2005.5,1016.14,2005.49Z"/><path class="cls-7" d="M1101.9,2097.67l-.17-2.22-1-2,.41-.22.47,0c17.94-1.37,52.11-12.58,87-28.56,35.14-16.07,65.11-34,78.24-46.9l3.13,3.2c-13.47,13.19-43.94,31.49-79.5,47.76C1154.54,2085.15,1120.61,2096.24,1101.9,2097.67Z"/><path class="cls-7" d="M1277.42,1981.53a132.74,132.74,0,0,1-210,96.07c32.51-8.32,70.07-21.69,108.92-39.46S1249.86,2000.69,1277.42,1981.53Z"/><path class="cls-7" d="M1342.15,1900.65c8.09,17.67-18.19,48.53-64.73,80.88-27.56,19.16-62.23,38.84-101.08,56.61s-76.41,31.14-108.92,39.46c-54.91,14.07-95.44,13.76-103.53-3.91-7.34-16.06,13.65-43,52.41-72a131.49,131.49,0,0,0,5.08,16.1c-10.71,8.84-16,15.84-14.12,19.89s10.93,4.68,25.08,2.2c27.34-4.8,73.78-20.88,124.6-44.13s93.37-47.88,114.87-65.42c11.13-9.09,16.62-16.28,14.73-20.41s-10.59-4.65-24.28-2.33a132.06,132.06,0,0,0-8.86-14.37C1300.72,1882.87,1334.81,1884.59,1342.15,1900.65Z"/><path class="cls-7" d="M1020.56,2015.63c.27.72.54,1.44.82,2.16-10.71,8.83-16,15.82-14.12,19.88s10.94,4.68,25.08,2.2c18.13-3.18,44.68-11.33,75.34-23.25a19.24,19.24,0,0,0,0,7.53c-11.84,4.45-23.31,8.37-34.19,11.72-47.31,14.54-72,14.34-74.88,8C996.92,2040.16,1001.83,2030.81,1020.56,2015.63Z"/><path class="cls-7" d="M1017,2009.19l1.13,1.41a203.87,203.87,0,0,0-22.67,20C999.67,2024.47,1006.84,2017.35,1017,2009.19Z"/><path class="cls-7" d="M1019.3,2012l-1.13-1.41c.16-.14.35-.27.54-.41Z"/><path class="cls-7" d="M995.5,2030.64c-4.37,6.42-5.49,11.79-3.46,16.24s6.64,6.74,13.09,7.76c16.82,2.67,45.77-4.25,70.49-11.85,11.19-3.43,23-7.49,35.16-12.06,2.34,3,5.82,5.26,10.32,7-18,6.87-35.44,12.68-51.79,17.25-58.28,16.3-83.6,11.92-87.59,3.23C979.51,2053.35,982.7,2044.09,995.5,2030.64Z"/><path class="cls-7" d="M1174,2039.23c-38,17.24-74.69,30.22-106.54,38.37-54.9,14.07-95.44,13.76-103.52-3.92-7.34-16,13.65-43,52.41-72q.6,2.41,1.29,4.81l-2.21-2.89c-22.5,17.22-47.75,41.19-40.23,57.58,2.9,6.34,9.77,9.77,18.86,11.21,21.4,3.37,55-4.24,77.25-10.46a627.89,627.89,0,0,0,62.27-21.29C1144.3,2042,1158,2041.5,1174,2039.23Z"/><path class="cls-7" d="M1110.78,2030.73c-12.17,4.57-24,8.63-35.16,12.06-24.72,7.6-53.67,14.52-70.49,11.85-6.45-1-11.11-3.44-13.09-7.76s-.91-9.82,3.46-16.24a203.87,203.87,0,0,1,22.67-20l1.13,1.41c.41,1.21.83,2.41,1.26,3.62-18.73,15.18-23.64,24.53-21.94,28.23,2.9,6.35,27.57,6.55,74.88-8,10.88-3.35,22.35-7.27,34.19-11.72a15.26,15.26,0,0,0,1.08,3.33A15.67,15.67,0,0,0,1110.78,2030.73Z"/><path class="cls-7" d="M1018.17,2010.6a203.87,203.87,0,0,0-22.67,20c4.17-6.17,11.34-13.29,21.54-21.45Z"/><path class="cls-7" d="M1019.3,2012l2.26,2.82c-.34.26-.67.53-1,.8C1020.13,2014.42,1019.71,2013.22,1019.3,2012Z"/><path class="cls-7" d="M1245.73,1965c-23.72,14.85-52.33,30.07-82.74,44-17.68,8.09-35.3,15.44-52.21,21.77a15.67,15.67,0,0,1-2-3.25,15.26,15.26,0,0,1-1.08-3.33c16.91-6.31,34.57-13.66,52.29-21.76,30.13-13.79,58.45-28.85,81.89-43.55,41.94-26.29,57.91-45.09,55-51.42-1.74-3.79-12.35-6.19-37-1.62l-1-5.35-.33-1.77c12.9-2.4,23-3.17,30.41-2.29,7.65.92,12.43,3.59,14.46,8C1310.63,1920.05,1276,1946,1245.73,1965Z"/><path class="cls-7" d="M1133.53,2040.64a627.89,627.89,0,0,1-62.27,21.29c-22.26,6.22-55.85,13.83-77.25,10.46-9.09-1.44-16-4.87-18.86-11.21-7.52-16.39,17.73-40.36,40.23-57.58l2.21,2.89c.36,1.24.72,2.48,1.12,3.7-.19.14-.38.27-.54.41l-1.13-1.41c-10.2,8.16-17.37,15.28-21.54,21.45-12.8,13.45-16,22.71-13.78,27.54,4,8.69,29.31,13.07,87.59-3.23,16.35-4.57,33.8-10.38,51.79-17.25A54.45,54.45,0,0,0,1133.53,2040.64Z"/><path class="cls-7" d="M1017,2009.19l1.13,1.41a203.87,203.87,0,0,0-22.67,20C999.67,2024.47,1006.84,2017.35,1017,2009.19Z"/><path class="cls-7" d="M1017.59,2006.49l2.19,2.86-1.07.84C1018.31,2009,1018,2007.73,1017.59,2006.49Z"/><path class="cls-7" d="M1263,1974.19c-26.37,17.5-58.44,35-92.75,50.74-12.32,5.64-24.62,10.89-36.76,15.71a54.45,54.45,0,0,1-12.43-2.94c15.13-5.76,30.65-12.26,46.19-19.36,34-15.53,65.68-32.89,91.76-50.18,50.44-33.45,63.68-55.47,59.71-64.17-2.21-4.82-11.27-8.46-29.75-7.6a205.07,205.07,0,0,0-30.08,4.06l-2,.41-1.47-7.09c27.73-5.77,62.38-9.19,69.88,7.2C1335.09,1922.28,1290.5,1956,1263,1974.19Z"/><path class="cls-7" d="M1342.15,1900.65c8.09,17.67-18.19,48.53-64.73,80.88-27.56,19.16-62.23,38.84-101.08,56.61s-76.41,31.14-108.92,39.46c-54.91,14.07-95.44,13.76-103.53-3.91-7.34-16.06,13.65-43,52.41-72a131.49,131.49,0,0,0,5.08,16.1c-10.71,8.84-16,15.84-14.12,19.89s10.93,4.68,25.08,2.2c27.34-4.8,73.78-20.88,124.6-44.13s93.37-47.88,114.87-65.42c11.13-9.09,16.62-16.28,14.73-20.41s-10.59-4.65-24.28-2.33a132.06,132.06,0,0,0-8.86-14.37C1300.72,1882.87,1334.81,1884.59,1342.15,1900.65Z"/><g class="cls-11"><path class="cls-7" d="M1271.85,1930.77c-2.5,2-5.29,4.18-8.34,6.4q-1.89-5.24-4.23-10.38c-.25-.53-.5-1-.74-1.58q-1.36-2.91-2.87-5.7a132.2,132.2,0,0,0-8.86-14.38c-.38-.54-.78-1.08-1.17-1.62a132.75,132.75,0,0,0-218.44,6.38A132.77,132.77,0,0,1,1236,1873.64a130.41,130.41,0,0,1,16.31,18.39c.41.54.79,1.09,1.18,1.64a132.52,132.52,0,0,1,8.86,14.36c1,1.87,2,3.78,2.86,5.7.26.53.51,1.06.74,1.6A133,133,0,0,1,1271.85,1930.77Z"/></g><path class="cls-7" d="M1265.87,1914.87a130.59,130.59,0,0,1,5.94,15.45c-21.5,17.54-64,42.16-114.87,65.42s-97.26,39.33-124.6,44.13a131.13,131.13,0,0,1-7.8-14.6q-1.71-3.72-3.16-7.49a132.68,132.68,0,0,1,240.88-110.2Q1264.17,1911.15,1265.87,1914.87Z"/><path class="cls-12" d="M1255.11,1920.13a119.31,119.31,0,0,1,5.38,14c-19.46,15.87-57.93,38.14-103.92,59.18s-88,35.59-112.73,39.93a122.33,122.33,0,0,1-7.06-13.21l-.29-.65q-1.38-3-2.56-6.13a120.81,120.81,0,0,1-4.6-14.56c0-.2-.1-.4-.14-.6a120.06,120.06,0,0,1,213.58-99c.36.49.71,1,1.06,1.48a118.58,118.58,0,0,1,8,13c.9,1.69,1.77,3.41,2.59,5.15C1254.67,1919.17,1254.89,1919.65,1255.11,1920.13Z"/><path class="cls-13" d="M1265.56,1980.44a120.62,120.62,0,0,1-8.16,34.21,120,120,0,0,1-150.78,68.84,121.24,121.24,0,0,1-18-7.92,120,120,0,0,1-13.08-8.22c29.41-7.53,63.39-19.62,98.54-35.7S1240.63,1997.77,1265.56,1980.44Z"/><path class="cls-13" d="M1260.49,1934.1c-19.45,15.88-57.93,38.16-103.92,59.19s-88,35.59-112.73,39.93a122.33,122.33,0,0,1-7.06-13.21c-.1-.22-.19-.43-.29-.64-.92-2-1.77-4.08-2.56-6.14a120.25,120.25,0,0,1-4.6-14.56c0-.2-.1-.4-.14-.6a120.17,120.17,0,0,1,49.21-127.26,120.47,120.47,0,0,0-19,71.07,118.72,118.72,0,0,0,3.16,21.92l.15.6c.06.26.15.58.26,1,6.12,20.63,28.33,29.26,49.76,27.32,40.84-3.7,129.28-51.51,148.09-62.54C1262.16,1933.31,1259.47,1930.89,1260.49,1934.1Z"/><path class="cls-14" d="M1174.12,2031.65c35.14-16.08,66.51-33.88,91.44-51.21a118.3,118.3,0,0,1-2.18,14.54c-19.18,14.06-49.85,31.45-85.58,47.8-34.23,15.65-66.14,27.17-89.14,32.79a120,120,0,0,1-13.08-8.22C1105,2059.82,1139,2047.73,1174.12,2031.65Z"/><path class="cls-14" d="M1254.44,1918.69c.23.48.45,1,.67,1.44a119.31,119.31,0,0,1,5.38,14c-19.46,15.87-57.93,38.14-103.92,59.18s-88,35.59-112.73,39.93a122.33,122.33,0,0,1-7.06-13.21l-.29-.65c23.46-2.69,66.23-16.78,113.11-38.22C1198.33,1958.85,1238.14,1934.71,1254.44,1918.69Z"/><path class="cls-14" d="M1025.83,1980.19l.38-8.08c16.37.78,59.1-13,103.93-33.51,53.48-24.47,88-47.85,94.43-58.31l6.89,4.25c-8.53,13.84-47.9,38.52-98,61.42C1086.9,1967.28,1043.63,1981,1025.83,1980.19Z"/><path class="cls-14" d="M1031.65,1939.33l-1.23-8c18.39-2.81,50.25-13.9,83.15-28.95,34.47-15.77,64.27-33.13,77.78-45.3l5.42,6c-14.08,12.69-44.67,30.56-79.84,46.64C1083.4,1925.07,1050.72,1936.41,1031.65,1939.33Z"/><path class="cls-14" d="M1029.19,2002.12V1994c18.78,0,62.93-14.41,109.88-35.89,49.25-22.53,90.54-47.79,100.42-61.44l6.56,4.75c-10.79,14.89-52.42,40.63-103.61,64C1093.78,1987.75,1049.33,2002.13,1029.19,2002.12Z"/><path class="cls-14" d="M1106.77,2085.51l-.15-2-.95-1.79.37-.2.42,0c16.23-1.23,47.14-11.38,78.75-25.84,31.78-14.54,58.9-30.79,70.78-42.42l2.83,2.89c-12.19,11.93-39.75,28.49-71.92,43.21C1154.4,2074.18,1123.7,2084.22,1106.77,2085.51Z"/><path class="cls-3" d="M1146,2095.09a125.35,125.35,0,0,1-73.37-23.67l-8.68-6.27,10.37-2.66c30.18-7.72,64-20,97.7-35.4s65.08-33,90.67-50.77l8.79-6.11-.93,10.67A125,125,0,0,1,1146,2095.09Zm-58.3-25.81a115.06,115.06,0,0,0,171.38-78.41c-24.19,15.93-52.61,31.49-82.88,45.34S1115.57,2061.4,1087.71,2069.28Z"/><path class="cls-15" d="M1324.12,1907.26c7.32,16-16.45,43.91-58.56,73.18-24.93,17.33-56.3,35.13-91.44,51.21s-69.13,28.17-98.54,35.7c-49.68,12.73-86.34,12.45-93.66-3.54-6.64-14.52,12.35-38.87,47.41-65.14a120.81,120.81,0,0,0,4.6,14.56c-9.69,8-14.45,14.33-12.78,18s9.89,4.23,22.69,2c24.73-4.34,66.75-18.89,112.73-39.93s84.46-43.31,103.92-59.18c10.06-8.22,15-14.73,13.33-18.47s-9.59-4.2-22-2.1a118.58,118.58,0,0,0-8-13C1286.64,1891.18,1317.48,1892.74,1324.12,1907.26Z"/><path class="cls-16" d="M1033.19,2011.29c.24.65.49,1.3.74,2-9.69,8-14.46,14.32-12.78,18s9.9,4.23,22.69,2c16.4-2.88,40.42-10.26,68.16-21a17.56,17.56,0,0,0,0,6.82c-10.71,4-21.09,7.57-30.93,10.6-42.8,13.15-65.12,13-67.74,7.23C1011.8,2033.48,1016.24,2025,1033.19,2011.29Z"/><path class="cls-13" d="M1030,2005.46l1,1.28a184.74,184.74,0,0,0-20.5,18.13Q1016.18,2016.5,1030,2005.46Z"/><path class="cls-13" d="M1032.05,2008l-1-1.27c.15-.13.32-.25.49-.37Z"/><path class="cls-16" d="M1010.52,2024.87c-4,5.8-5,10.67-3.14,14.69s6,6.1,11.85,7c15.22,2.41,41.41-3.85,63.77-10.72,10.12-3.11,20.79-6.78,31.81-10.91a21.13,21.13,0,0,0,9.33,6.3c-16.27,6.22-32.06,11.48-46.85,15.61-52.73,14.75-75.63,10.79-79.24,2.92C996.05,2045.41,998.94,2037,1010.52,2024.87Z"/><path class="cls-16" d="M1172,2032.63c-34.37,15.6-67.56,27.35-96.38,34.72-49.67,12.73-86.34,12.45-93.66-3.55-6.63-14.51,12.36-38.86,47.42-65.14.36,1.46.76,2.91,1.17,4.36l-2-2.62c-20.35,15.58-43.2,37.27-36.4,52.1,2.63,5.74,8.84,8.83,17.07,10.14,19.35,3.05,49.74-3.84,69.89-9.47a568.88,568.88,0,0,0,56.33-19.26C1145.13,2035.16,1157.54,2034.69,1172,2032.63Z"/><path class="cls-17" d="M1114.81,2025c-11,4.13-21.69,7.8-31.81,10.91-22.36,6.87-48.55,13.13-63.77,10.72-5.84-.92-10.05-3.11-11.85-7s-.82-8.89,3.14-14.69a184.74,184.74,0,0,1,20.5-18.13l1,1.27c.36,1.1.75,2.19,1.14,3.28-17,13.73-21.39,22.19-19.85,25.54,2.62,5.74,24.94,5.92,67.74-7.23,9.84-3,20.22-6.58,30.93-10.6a13.34,13.34,0,0,0,1,3A13.64,13.64,0,0,0,1114.81,2025Z"/><path class="cls-18" d="M1031,2006.74a184.74,184.74,0,0,0-20.5,18.13q5.65-8.37,19.48-19.41Z"/><path class="cls-18" d="M1032.05,2008l2,2.55c-.3.24-.61.48-.9.73C1032.8,2010.2,1032.41,2009.11,1032.05,2008Z"/><path class="cls-18" d="M1236.89,1965.46a666.51,666.51,0,0,1-74.85,39.8c-16,7.31-31.94,14-47.23,19.69a13.64,13.64,0,0,1-1.82-3,13.34,13.34,0,0,1-1-3c15.3-5.71,31.28-12.36,47.31-19.7,27.25-12.47,52.88-26.09,74.08-39.39,37.94-23.78,52.39-40.79,49.77-46.52-1.57-3.42-11.17-5.6-33.44-1.46l-.9-4.84-.3-1.61c11.68-2.17,20.82-2.86,27.52-2.06,6.92.83,11.24,3.24,13.08,7.24C1295.6,1924.82,1264.29,1948.28,1236.89,1965.46Z"/><path class="cls-17" d="M1135.39,2033.91a568.88,568.88,0,0,1-56.33,19.26c-20.15,5.63-50.54,12.52-69.89,9.47-8.23-1.31-14.44-4.4-17.07-10.14-6.8-14.83,16-36.52,36.4-52.1l2,2.62c.32,1.12.65,2.24,1,3.35-.17.12-.34.24-.49.37l-1-1.28q-13.85,11.07-19.48,19.41c-11.58,12.16-14.47,20.54-12.47,24.91,3.61,7.87,26.51,11.83,79.24-2.92,14.79-4.13,30.58-9.39,46.85-15.61A48.69,48.69,0,0,0,1135.39,2033.91Z"/><path class="cls-16" d="M1030,2005.46l1,1.28a184.74,184.74,0,0,0-20.5,18.13Q1016.18,2016.5,1030,2005.46Z"/><path class="cls-18" d="M1030.5,2003l2,2.59-1,.76C1031.15,2005.26,1030.82,2004.14,1030.5,2003Z"/><path class="cls-18" d="M1252.56,1973.8c-23.86,15.83-52.88,31.7-83.92,45.9-11.14,5.1-22.27,9.85-33.25,14.21a48.69,48.69,0,0,1-11.25-2.66c13.69-5.21,27.73-11.09,41.79-17.51,30.72-14.06,59.42-29.75,83-45.4,45.64-30.26,57.61-50.18,54-58-2-4.36-10.2-7.66-26.91-6.87a182.49,182.49,0,0,0-27.22,3.67l-1.81.37-1.33-6.41c25.09-5.22,56.44-8.32,63.22,6.51C1317.73,1926.83,1277.39,1957.33,1252.56,1973.8Z"/><path class="cls-3" d="M1016,2081.48c-18,0-33.26-3.9-38.6-15.58-10.24-22.4,26.28-54.25,49-71.25l6.06-4.54,1.81,7.36a115.7,115.7,0,0,0,4.41,14l1.3,3.38-2.79,2.3c-8.3,6.85-10.5,10.51-11.08,11.89,1.46.48,5.83,1.23,16.94-.71,25.07-4.4,67.8-19.56,111.5-39.55s83.11-42.41,102.84-58.51c8.73-7.13,11-10.92,11.61-12.34-1.43-.47-5.65-1.2-16.24.6l-3.57.61-1.7-3.19a115.23,115.23,0,0,0-7.68-12.47l-4.37-6.18,7.39-1.61c27.69-6.05,75.68-12.85,85.92,9.54h0c11.33,24.75-32.89,60.36-60.26,79.38-26.06,18.12-58,36-92.21,51.65s-68.64,28.13-99.39,36C1059.77,2076.58,1036.13,2081.48,1016,2081.48Zm10.54-74.33c-35.14,27.52-43.88,46.13-40,54.58,4.4,9.6,30,15.57,87.85.76,30.18-7.72,64-20,97.7-35.4s65.08-33,90.67-50.77c49-34.06,61.26-57.36,56.86-67h0c-3.86-8.44-23.65-14-67.45-5.41.84,1.36,1.65,2.72,2.44,4.11,13.83-1.93,21.22-.19,23.83,5.51,2.86,6.25-1.68,13.78-14.72,24.43-20.66,16.86-59.91,39.23-105,59.86s-87.7,35.7-114,40.31c-16.58,2.9-25.26,1.41-28.12-4.84-2.6-5.7.92-12.44,11.42-21.64C1027.48,2010.18,1027,2008.67,1026.5,2007.15Z"/><g class="cls-11"><path class="cls-7" d="M1260.52,1934.51q-3.39,2.77-7.54,5.79-1.71-4.72-3.83-9.38c-.22-.48-.45-1-.67-1.43-.82-1.76-1.69-3.48-2.59-5.16a121.25,121.25,0,0,0-8-13l-1.06-1.47a120.1,120.1,0,0,0-197.62,5.78,120,120,0,0,1,203.61-16.16c.37.49.72,1,1.07,1.48a119.1,119.1,0,0,1,8,13q1.36,2.54,2.59,5.15c.23.48.46,1,.67,1.44A119.86,119.86,0,0,1,1260.52,1934.51Z"/></g><path class="cls-3" d="M1041.36,2038.74l-1.79-2.89a127.42,127.42,0,0,1-7.35-13.75q-1.6-3.51-3-7.07a125.07,125.07,0,0,1,218.68-117.39,126.85,126.85,0,0,1,8.35,13.54c1.19,2.24,2.33,4.53,3.4,6.87a127.92,127.92,0,0,1,5.6,14.55l1,3.24-2.64,2.15c-20.66,16.86-59.91,39.23-105,59.86s-87.7,35.7-114,40.31ZM1145.9,1855a114.86,114.86,0,0,0-107.29,156.39q1.26,3.28,2.74,6.51c1.51,3.31,3.19,6.56,5,9.71,25.43-5.09,66.34-19.79,108.13-38.91s79.66-40.46,100.15-56.37c-1.2-3.43-2.56-6.83-4.08-10.14h0q-1.47-3.23-3.12-6.31a116.91,116.91,0,0,0-7.69-12.47A114.94,114.94,0,0,0,1145.9,1855Z"/><g class="cls-19"><ellipse class="cls-3" cx="2284.81" cy="3526.71" rx="860.19" ry="108.29"/></g></svg>